<svg height="512" viewBox="0 0 128 128" width="512" xmlns="http://www.w3.org/2000/svg"><path d="m127.487 60.523-8.43-8.43-.024-.024-11.6-11.6-39.956-39.956a1.75 1.75 0 0 0 -2.954.9l-3.134 15.712a90.4 90.4 0 0 1 -15.834 35.8l-6.529 6.53a1.746 1.746 0 0 0 -.39.593l-3.759 9.5a1.75 1.75 0 0 0 .39 1.882l4.133 4.125-5.867 5.867-3.591 3.591-29.429 29.43a1.749 1.749 0 0 0 0 2.475l10.569 10.569a1.749 1.749 0 0 0 2.475 0l28.122-28.122 4.9-4.9 5.866-5.865 4.134 4.134a1.749 1.749 0 0 0 1.881.39l9.5-3.76a1.745 1.745 0 0 0 .593-.39l6.528-6.528a90.412 90.412 0 0 1 35.8-15.836l15.717-3.134a1.749 1.749 0 0 0 .9-2.953zm-87.045 35.129-8.094-8.094 2.422-2.422 8.094 8.094zm-28.123 28.123-8.094-8.095 25.649-25.648 8.094 8.094zm33.02-33.02-8.094-8.094 4.631-4.631 8.094 8.095zm20.993-4.513-8.091 3.2-19.687-19.683 3.2-8.09 5.134-5.136 24.578 24.575zm43.859-23.063a93.951 93.951 0 0 0 -36.07 15.635l-24.935-24.935a93.961 93.961 0 0 0 15.636-36.07l2.493-12.509 5.462 5.462-2.951 14.8a1.749 1.749 0 0 0 1.374 2.058 1.729 1.729 0 0 0 .344.034 1.75 1.75 0 0 0 1.714-1.408l2.494-12.508 8.348 8.343-6.537 10.394a1.75 1.75 0 0 0 2.963 1.863l6.109-9.718 7.136 7.136-8.188 8.188a1.75 1.75 0 1 0 2.475 2.475l8.188-8.188 7.135 7.135-9.718 6.108a1.75 1.75 0 1 0 1.862 2.963l10.393-6.537 8.343 8.343-12.508 2.494a1.75 1.75 0 1 0 .685 3.432l14.8-2.951 5.462 5.462z"/></svg>