<?xml version="1.0"?>
<svg xmlns="http://www.w3.org/2000/svg" width="512" height="512" viewBox="0 0 128 128"><g><path d="M127.487,125.01,2.987.51A1.749,1.749,0,0,0,0,1.747v124.5A1.751,1.751,0,0,0,1.75,128h124.5a1.749,1.749,0,0,0,1.237-2.987ZM3.5,124.5v-18.92H9.219a1.75,1.75,0,0,0,0-3.5H3.5V89.646H9.219a1.75,1.75,0,0,0,0-3.5H3.5V73.715H9.219a1.75,1.75,0,0,0,0-3.5H3.5V57.785H9.219a1.75,1.75,0,0,0,0-3.5H3.5V41.854H9.219a1.75,1.75,0,1,0,0-3.5H3.5V25.923H9.219a1.75,1.75,0,0,0,0-3.5H3.5V5.972L122.025,124.5Z"/><path d="M21.75,108H77.966A1.749,1.749,0,0,0,79.2,105.01L22.987,48.794A1.75,1.75,0,0,0,20,50.031v56.216A1.751,1.751,0,0,0,21.75,108ZM23.5,54.256,73.741,104.5H23.5Z"/></g></svg>
