<?xml version="1.0"?>
<svg xmlns="http://www.w3.org/2000/svg" id="Layer_2_copy_2" data-name="Layer 2 copy 2" viewBox="0 0 64 64" width="512" height="512"><path d="M45.267,39.462,33,31.458V12a1,1,0,0,0-2,0V32.542l13.173,8.6a1,1,0,1,0,1.094-1.676Z"/><path d="M32,0A32,32,0,1,0,64,32,32,32,0,0,0,32,0ZM53.893,52.479l-1.9-1.9A1,1,0,0,0,50.583,52l1.9,1.9A29.881,29.881,0,0,1,33,61.975V59a1,1,0,0,0-2,0v2.975a29.881,29.881,0,0,1-19.479-8.081l1.9-1.9A1,1,0,0,0,12,50.583l-1.9,1.9A29.881,29.881,0,0,1,2.025,33H5a1,1,0,0,0,0-2H2.025a29.881,29.881,0,0,1,8.081-19.479l1.9,1.9A1,1,0,0,0,13.417,12l-1.9-1.9A29.881,29.881,0,0,1,31,2.025V5a1,1,0,0,0,2,0V2.025a29.881,29.881,0,0,1,19.479,8.081l-1.9,1.9A1,1,0,1,0,52,13.417l1.9-1.9A29.881,29.881,0,0,1,61.975,31H59a1,1,0,0,0,0,2h2.975A29.881,29.881,0,0,1,53.893,52.479Z"/></svg>
