<?xml version="1.0" encoding="iso-8859-1"?>
<!-- Generator: Adobe Illustrator 19.0.0, SVG Export Plug-In . SVG Version: 6.00 Build 0)  -->
<svg version="1.1" id="Capa_1" xmlns="http://www.w3.org/2000/svg" xmlns:xlink="http://www.w3.org/1999/xlink" x="0px" y="0px"
	 viewBox="0 0 511.585 511.585" style="enable-background:new 0 0 511.585 511.585;" xml:space="preserve">
<g>
	<g>
		<path d="M87.344,427.493c-12.086-12.062-33.147-12.062-45.202,0c-6.03,6.031-9.35,14.051-9.354,22.595
			c0,8.543,3.323,16.572,9.358,22.603c6.031,6.032,14.052,9.347,22.587,9.347c8.544,0,16.569-3.323,22.603-9.356
			C99.792,460.23,99.8,439.96,87.344,427.493z M81.687,467.035c-9.042,9.042-24.842,9.05-33.892,0.008
			c-4.525-4.525-7.018-10.541-7.018-16.954c0-6.405,2.493-12.42,7.014-16.946s10.537-7.014,16.942-7.014
			c6.41,0,12.433,2.496,16.962,7.013C91.034,442.489,91.03,457.695,81.687,467.035z"/>
	</g>
</g>
<g>
	<g>
		<path d="M480.974,188.04c-1.709-1.396-4.221-1.154-5.617,0.562c-29.735,36.334-63.501,40.633-93.297,44.425
			c-21.074,2.684-39.269,5.002-52.259,17.992c-5.656,5.672-17.024,17.359-31.778,32.659c-1.53,1.584-1.483,4.111,0.109,5.648
			c0.773,0.742,1.772,1.116,2.77,1.116c1.046,0,2.092-0.405,2.878-1.224c14.707-15.253,26.028-26.902,31.669-32.551
			c11.056-11.056,28.002-13.217,47.624-15.713c29.719-3.784,66.716-8.497,98.463-47.289
			C482.933,191.957,482.683,189.436,480.974,188.04z"/>
	</g>
</g>
<g>
	<g>
		<path d="M260.308,328.696c-1.599-1.529-4.123-1.475-5.648,0.124c-27.768,28.954-58.68,61.279-85.394,89.217
			c-35.223,36.827-63.041,65.92-66.848,69.728c-20.782,20.77-54.584,20.77-75.349,0c-10.064-10.065-15.604-23.446-15.604-37.676
			c0-14.231,5.543-27.605,15.608-37.669c2.992-2.988,12.755-12.194,26.273-24.943c24.639-23.227,61.866-58.32,98.544-93.874
			c1.584-1.537,1.623-4.065,0.086-5.649c-1.541-1.6-4.065-1.623-5.648-0.094c-36.634,35.516-73.838,70.594-98.458,93.805
			c-14.075,13.271-23.371,22.033-26.445,25.107C9.854,418.342,3.48,433.728,3.476,450.089c-0.004,16.368,6.37,31.754,17.944,43.325
			c11.941,11.944,27.628,17.913,43.317,17.913c15.691,0,31.381-5.969,43.329-17.913c3.87-3.871,31.716-32.989,66.973-69.853
			c26.71-27.932,57.622-60.256,85.386-89.217C261.954,332.753,261.9,330.224,260.308,328.696z"/>
	</g>
</g>
<g>
	<g>
		<path d="M274.024,74.177c0.835-1.764,0.274-3.925-1.396-5.041c-1.841-1.217-4.314-0.733-5.539,1.116
			c-1.382,2.067-1.435,5.126-1.116,19.817c0.477,21.83,1.272,58.36-7.825,79.051c-0.574,1.302-1.971,3.792-5.349,8.254
			c-1.33,1.763-0.983,4.268,0.776,5.602c0.721,0.538,1.568,0.804,2.407,0.804c1.209,0,2.403-0.546,3.192-1.583
			c3.124-4.127,5.184-7.35,6.292-9.854c9.808-22.322,8.987-59.959,8.496-82.445C273.814,83.048,273.658,75.971,274.024,74.177z"/>
	</g>
</g>
<g>
	<g>
		<path d="M481.483,28.06c-0.811-0.96-2.146-1.451-3.277-1.412c-1.256,0.07-2.404,0.733-3.098,1.778l-54.271,81.571l-59.209,1.685
			c-2.201,0.07-3.94,1.904-3.878,4.112c0.062,2.208,1.88,3.838,4.111,3.877l61.277-1.748c1.296-0.039,2.489-0.702,3.207-1.779
			l52.282-78.59c4.931,7.03,14.293,22.182,19.676,42.436c10.003,37.652,2.24,74.252-23.078,108.784
			c-1.303,1.779-0.921,4.275,0.858,5.578c0.71,0.523,1.545,0.772,2.364,0.772c1.225,0,2.442-0.561,3.223-1.629
			C545.827,105.987,482.13,28.825,481.483,28.06z"/>
	</g>
</g>
<g>
	<g>
		<path d="M399.888,2.327c-0.624-1.202-1.802-2.005-3.144-2.138c-2.614-0.25-64.22-5.688-111.149,64.835
			c-1.225,1.834-0.726,4.315,1.108,5.532c1.841,1.225,4.322,0.741,5.539-1.108c35.586-53.468,80.783-60.614,97.292-61.34
			l-38.229,68.003c-0.897,1.592-0.601,3.589,0.725,4.853l25.404,24.233c0.773,0.734,1.764,1.101,2.754,1.101
			c1.052,0,2.106-0.414,2.887-1.233c1.529-1.6,1.467-4.128-0.133-5.649L359.786,77.32l40.032-71.201
			C400.481,4.948,400.504,3.52,399.888,2.327z"/>
	</g>
</g>
<g>
	<g>
		<path d="M363.452,112.064l-91.331-43.216c-1.99-0.945-4.369-0.102-5.321,1.903c-0.945,1.997-0.094,4.377,1.903,5.321
			l91.332,43.216c0.554,0.265,1.131,0.382,1.708,0.382c1.49,0,2.926-0.842,3.612-2.285
			C366.3,115.395,365.449,113.008,363.452,112.064z"/>
	</g>
</g>
<g>
	<g>
		<path d="M356.43,78.436c-1.271-1.802-3.775-2.223-5.57-0.944l-13.716,9.745c-1.795,1.279-2.216,3.768-0.937,5.57
			c0.773,1.093,2.006,1.678,3.254,1.678c0.803,0,1.615-0.234,2.316-0.734l13.717-9.745C357.288,82.727,357.71,80.23,356.43,78.436z"
			/>
	</g>
</g>
<g>
	<g>
		<path d="M357.959,140.01l-53.928-14.777c-1.014-0.273-2.106-0.133-3.035,0.382c-0.92,0.531-1.592,1.397-1.872,2.419
			l-13.716,50.089c-4.642,16.993,5.399,34.61,22.384,39.268c2.762,0.757,5.609,1.139,8.45,1.139c14.348,0,27.01-9.674,30.802-23.531
			l13.716-50.082C361.346,142.795,360.09,140.595,357.959,140.01z M339.336,192.892c-3.403,12.453-16.884,20.232-29.438,16.791
			c-12.732-3.488-20.269-16.705-16.782-29.453l12.663-46.235l46.219,12.67L339.336,192.892z"/>
	</g>
</g>
<g>
	<g>
		<path d="M346.037,153.304l-38.526-10.548c-2.131-0.569-4.331,0.687-4.908,2.801c-0.585,2.13,0.671,4.322,2.801,4.907
			l38.527,10.549c0.351,0.094,0.71,0.141,1.053,0.141c1.756,0,3.371-1.163,3.854-2.942
			C349.423,156.09,348.167,153.889,346.037,153.304z"/>
	</g>
</g>
<g>
	<g>
		<path d="M341.824,168.721l-38.526-10.556c-2.114-0.554-4.322,0.671-4.907,2.801c-0.585,2.13,0.671,4.322,2.801,4.907
			l38.526,10.557c0.352,0.094,0.702,0.141,1.054,0.141c1.755,0,3.362-1.163,3.854-2.934
			C345.211,171.506,343.955,169.306,341.824,168.721z"/>
	</g>
</g>
<g>
	<g>
		<path d="M318.231,137.53c-1.919-1.085-4.361-0.398-5.438,1.521l-16.15,28.72c-1.084,1.926-0.398,4.361,1.521,5.445
			c0.616,0.343,1.295,0.507,1.959,0.507c1.397,0,2.746-0.733,3.479-2.036l16.15-28.719
			C320.836,141.049,320.15,138.614,318.231,137.53z"/>
	</g>
</g>
<g>
	<g>
		<path d="M333.648,141.758c-1.919-1.092-4.353-0.398-5.438,1.521l-16.15,28.712c-1.084,1.927-0.398,4.361,1.521,5.438
			c0.616,0.351,1.295,0.515,1.958,0.515c1.389,0,2.747-0.733,3.48-2.037l16.15-28.711
			C336.253,145.277,335.567,142.843,333.648,141.758z"/>
	</g>
</g>
<g>
	<g>
		<path d="M349.049,145.979c-1.896-1.077-4.354-0.414-5.438,1.521l-16.15,28.704c-1.084,1.927-0.406,4.361,1.521,5.438
			c0.616,0.351,1.287,0.515,1.958,0.515c1.39,0,2.748-0.733,3.48-2.036l16.15-28.704
			C351.655,149.498,350.977,147.063,349.049,145.979z"/>
	</g>
</g>
<g>
	<g>
		<path d="M327.781,189.725l-23.11-6.328c-2.13-0.57-4.322,0.687-4.907,2.801c-0.577,2.13,0.671,4.323,2.801,4.908l23.109,6.327
			c0.352,0.094,0.711,0.141,1.054,0.141c1.755,0,3.37-1.162,3.854-2.942C331.159,192.51,329.911,190.31,327.781,189.725z"/>
	</g>
</g>
<g>
	<g>
		<path d="M167.938,303.511c-1.544-1.576-4.076-1.592-5.648-0.047l-95.61,93.938c-1.572,1.544-1.596,4.072-0.047,5.648
			c0.781,0.796,1.814,1.194,2.848,1.194c1.011,0,2.021-0.383,2.8-1.147l95.61-93.937
			C169.463,307.615,169.487,305.087,167.938,303.511z"/>
	</g>
</g>
<g>
	<g>
		<path d="M211.55,344.675c-1.587-1.521-4.12-1.467-5.645,0.125l-93.937,98.048c-1.529,1.591-1.474,4.12,0.121,5.649
			c0.772,0.741,1.767,1.108,2.762,1.108c1.048,0,2.098-0.414,2.883-1.233l93.937-98.049
			C213.2,348.732,213.146,346.204,211.55,344.675z"/>
	</g>
</g>
<g>
	<g>
		<path d="M106.074,408.588c-18.499-18.514-37.103-12.383-37.891-12.117c-2.075,0.71-3.171,2.965-2.473,5.04
			c0.694,2.083,2.953,3.223,5.044,2.521c0.6-0.188,14.843-4.627,29.671,10.205c14.902,14.91,10.787,29.593,10.611,30.186
			c-0.656,2.107,0.522,4.346,2.633,5.002c0.394,0.125,0.791,0.18,1.182,0.18c1.704,0,3.284-1.1,3.815-2.811
			C118.912,445.99,124.518,427.031,106.074,408.588z"/>
	</g>
</g>
<g>
	<g>
		<path d="M261.755,213.342L86.228,29.821c-7.795-7.786-20.469-7.786-28.248,0L7.138,80.668c-3.761,3.761-5.832,8.778-5.832,14.122
			c0,5.352,2.072,10.369,5.77,14.059l175.465,183.458c0.761,0.795,1.807,1.233,2.887,1.233c0.261,0,0.523-0.023,0.783-0.079
			l28.248-5.649c2.161-0.428,3.566-2.535,3.132-4.696c-0.432-2.169-2.504-3.597-4.7-3.137l-26.094,5.22L12.787,103.262
			c-2.25-2.247-3.491-5.259-3.491-8.473c0-3.214,1.241-6.218,3.491-8.473L63.63,35.47c4.678-4.666,12.281-4.666,16.888-0.062
			L254.542,217.36l-5.239,26.215c-0.433,2.161,0.972,4.267,3.133,4.697c2.192,0.436,4.267-0.968,4.7-3.129l5.648-28.251
			C263.042,215.612,262.656,214.286,261.755,213.342z"/>
	</g>
</g>
<g>
	<g>
		<path d="M208.105,216.19L72.103,72.194c-6.031-6.038-16.564-6.038-22.595,0c-3.019,3.02-4.681,7.031-4.681,11.298
			c0,4.267,1.662,8.278,4.603,11.219l136.002,144.004c3.016,3.011,7.03,4.665,11.298,4.665c4.267,0,8.277-1.654,11.298-4.673
			c3.015-3.02,4.677-7.031,4.677-11.306C212.705,223.134,211.043,219.116,208.105,216.19z M202.378,233.058
			c-3.015,3.019-8.364,2.925-11.223,0.085L55.157,89.14c-1.51-1.505-2.341-3.51-2.341-5.648c0-2.129,0.831-4.135,2.341-5.648
			c1.509-1.506,3.515-2.341,5.649-2.341c2.133,0,4.138,0.835,5.57,2.263l136.002,143.987c1.51,1.505,2.337,3.518,2.337,5.648
			C204.715,229.539,203.884,231.552,202.378,233.058z"/>
	</g>
</g>
<g>
	<g>
		<path d="M179.858,244.442L43.856,100.439c-6.032-6.039-16.564-6.039-22.595,0c-1.561,1.56-1.561,4.095,0,5.648
			c1.56,1.561,4.087,1.561,5.648,0c3.02-3.019,8.356-2.933,11.22-0.078l136.002,143.996c1.509,1.505,2.336,3.511,2.336,5.648
			c0,2.138-0.83,4.143-2.336,5.649c-1.561,1.56-1.561,4.087,0,5.648c0.78,0.78,1.802,1.171,2.824,1.171
			c1.022,0,2.044-0.39,2.825-1.17c3.016-3.02,4.678-7.029,4.678-11.298C184.458,251.386,182.796,247.368,179.858,244.442z"/>
	</g>
</g>
<g>
	<g>
		<path d="M236.278,204.815c-1.561-1.569-4.096-1.561-5.649-0.008c-3.117,3.106-8.192,3.106-11.227,0.086L83.4,60.898
			c-1.506-1.506-2.337-3.511-2.337-5.649S81.89,51.106,83.4,49.6c1.561-1.552,1.561-4.087,0-5.648c-1.561-1.561-4.088-1.561-5.649,0
			c-3.015,3.011-4.677,7.029-4.677,11.297s1.662,8.278,4.6,11.219l136.002,143.987c3.113,3.113,7.205,4.674,11.297,4.674
			c4.092,0,8.184-1.561,11.297-4.666C237.835,208.903,237.835,206.376,236.278,204.815z"/>
	</g>
</g>
<g>
	<g>
		<path d="M301.23,252.829l-22.579-22.603c-0.749-0.749-1.763-1.17-2.824-1.17c-1.061,0-2.075,0.421-2.825,1.17l-73.448,73.449
			c-1.561,1.56-1.561,4.087,0,5.648l22.595,22.595c0.749,0.749,1.763,1.171,2.824,1.171c1.061,0,2.075-0.422,2.824-1.171
			l73.433-73.44C302.791,256.917,302.791,254.389,301.23,252.829z M224.973,323.445l-16.946-16.946l67.8-67.792l16.931,16.945
			L224.973,323.445z"/>
	</g>
</g>
<g>
	<g>
		<path d="M419.845,419.934l-135.632-127.65c-1.606-1.506-4.127-1.435-5.648,0.172c-1.514,1.607-1.435,4.134,0.172,5.648
			l135.631,127.65c0.772,0.726,1.756,1.084,2.739,1.084c1.061,0,2.123-0.421,2.91-1.256
			C421.531,423.975,421.452,421.448,419.845,419.934z"/>
	</g>
</g>
<g>
	<g>
		<path d="M402.899,436.896L267.252,309.238c-1.606-1.506-4.138-1.435-5.652,0.172c-1.51,1.607-1.435,4.135,0.172,5.648
			l135.65,127.658c0.773,0.726,1.756,1.084,2.739,1.084c1.061,0,2.122-0.421,2.91-1.256
			C404.585,440.937,404.506,438.41,402.899,436.896z"/>
	</g>
</g>
<g>
	<g>
		<path d="M488.332,488.592l-33.893-56.487c-1.139-1.895-3.604-2.512-5.477-1.373c-1.896,1.132-2.512,3.589-1.373,5.478
			l33.893,56.486c0.748,1.249,2.075,1.943,3.425,1.943c0.702,0,1.412-0.18,2.052-0.57
			C488.855,492.938,489.472,490.481,488.332,488.592z"/>
	</g>
</g>
<g>
	<g>
		<path d="M452.28,430.365l-33.908-11.313c-2.083-0.687-4.354,0.428-5.056,2.528c-0.695,2.091,0.436,4.354,2.527,5.056
			l33.908,11.312c0.421,0.141,0.843,0.203,1.264,0.203c1.67,0,3.23-1.053,3.792-2.73C455.502,433.33,454.37,431.067,452.28,430.365z
			"/>
	</g>
</g>
<g>
	<g>
		<path d="M487.731,487.82c-1.56-1.561-4.088-1.561-5.648,0l-16.946,16.946c-1.561,1.56-1.561,4.087,0,5.648
			c0.78,0.78,1.803,1.171,2.824,1.171c1.022,0,2.044-0.391,2.824-1.171l16.946-16.945
			C489.292,491.909,489.291,489.381,487.731,487.82z"/>
	</g>
</g>
<g>
	<g>
		<path d="M470.013,504.165l-56.503-33.893c-1.873-1.131-4.331-0.523-5.477,1.373c-1.139,1.889-0.523,4.346,1.373,5.478
			l56.503,33.893c0.64,0.389,1.35,0.569,2.052,0.569c1.35,0,2.676-0.694,3.425-1.943
			C472.526,507.754,471.909,505.296,470.013,504.165z"/>
	</g>
</g>
<g>
	<g>
		<path d="M415.25,472.433l-11.297-33.893c-0.703-2.09-2.965-3.221-5.057-2.527c-2.09,0.702-3.221,2.965-2.527,5.056l11.297,33.893
			c0.563,1.668,2.123,2.73,3.792,2.73c0.422,0,0.843-0.062,1.265-0.203C414.813,476.787,415.944,474.524,415.25,472.433z"/>
	</g>
</g>
<g>
</g>
<g>
</g>
<g>
</g>
<g>
</g>
<g>
</g>
<g>
</g>
<g>
</g>
<g>
</g>
<g>
</g>
<g>
</g>
<g>
</g>
<g>
</g>
<g>
</g>
<g>
</g>
<g>
</g>
</svg>
